<mxfile host="app.diagrams.net" modified="2023-08-16T17:55:00.559Z" agent="Mozilla/5.0 (X11; Linux x86_64) AppleWebKit/537.36 (KHTML, like Gecko) Chrome/115.0.0.0 Safari/537.36 OPR/101.0.0.0" etag="MNDaC7-uRuEKkJ41XRCX" version="21.6.8" type="google">
  <diagram name="Page-1" id="XnwB0eLhRZ_xi3LwThR9">
    <mxGraphModel grid="1" page="1" gridSize="10" guides="1" tooltips="1" connect="1" arrows="1" fold="1" pageScale="1" pageWidth="850" pageHeight="1100" math="0" shadow="0">
      <root>
        <mxCell id="0" />
        <mxCell id="1" parent="0" />
        <mxCell id="WsqdVvgy8sFZjgXgieVY-16" value="" style="fontStyle=1;align=center;verticalAlign=top;childLayout=stackLayout;horizontal=1;horizontalStack=0;resizeParent=1;resizeParentMax=0;resizeLast=0;marginBottom=0;" vertex="1" parent="1">
          <mxGeometry x="170" y="360" width="200" height="161" as="geometry" />
        </mxCell>
        <mxCell id="WsqdVvgy8sFZjgXgieVY-17" value="&lt;b&gt;Perception&lt;/b&gt;" style="html=1;align=left;spacingLeft=4;verticalAlign=top;strokeColor=none;fillColor=none;" vertex="1" parent="WsqdVvgy8sFZjgXgieVY-16">
          <mxGeometry width="200" height="40" as="geometry" />
        </mxCell>
        <mxCell id="WsqdVvgy8sFZjgXgieVY-18" value="" style="shape=module;jettyWidth=10;jettyHeight=4;" vertex="1" parent="WsqdVvgy8sFZjgXgieVY-17">
          <mxGeometry x="1" width="16" height="20" relative="1" as="geometry">
            <mxPoint x="-25" y="9" as="offset" />
          </mxGeometry>
        </mxCell>
        <mxCell id="WsqdVvgy8sFZjgXgieVY-19" value="" style="line;strokeWidth=1;fillColor=none;align=left;verticalAlign=middle;spacingTop=-1;spacingLeft=3;spacingRight=3;rotatable=0;labelPosition=right;points=[];portConstraint=eastwest;" vertex="1" parent="WsqdVvgy8sFZjgXgieVY-16">
          <mxGeometry y="40" width="200" height="8" as="geometry" />
        </mxCell>
        <mxCell id="WsqdVvgy8sFZjgXgieVY-20" value="&lt;u&gt;provided interfaces&lt;/u&gt;" style="html=1;align=center;spacingLeft=4;verticalAlign=top;strokeColor=none;fillColor=none;" vertex="1" parent="WsqdVvgy8sFZjgXgieVY-16">
          <mxGeometry y="48" width="200" height="25" as="geometry" />
        </mxCell>
        <mxCell id="WsqdVvgy8sFZjgXgieVY-21" value="A - Cones relative position" style="html=1;align=left;spacingLeft=4;verticalAlign=top;strokeColor=none;fillColor=none;" vertex="1" parent="WsqdVvgy8sFZjgXgieVY-16">
          <mxGeometry y="73" width="200" height="25" as="geometry" />
        </mxCell>
        <mxCell id="WsqdVvgy8sFZjgXgieVY-22" value="" style="line;strokeWidth=1;fillColor=none;align=left;verticalAlign=middle;spacingTop=-1;spacingLeft=3;spacingRight=3;rotatable=0;labelPosition=right;points=[];portConstraint=eastwest;" vertex="1" parent="WsqdVvgy8sFZjgXgieVY-16">
          <mxGeometry y="98" width="200" height="8" as="geometry" />
        </mxCell>
        <mxCell id="WsqdVvgy8sFZjgXgieVY-23" value="&lt;u&gt;required interfaces&lt;/u&gt;" style="html=1;align=center;spacingLeft=4;verticalAlign=top;strokeColor=none;fillColor=none;" vertex="1" parent="WsqdVvgy8sFZjgXgieVY-16">
          <mxGeometry y="106" width="200" height="25" as="geometry" />
        </mxCell>
        <mxCell id="WsqdVvgy8sFZjgXgieVY-24" value="Z - Stereo camera images" style="html=1;align=left;spacingLeft=4;verticalAlign=top;strokeColor=none;fillColor=none;" vertex="1" parent="WsqdVvgy8sFZjgXgieVY-16">
          <mxGeometry y="131" width="200" height="30" as="geometry" />
        </mxCell>
        <mxCell id="WsqdVvgy8sFZjgXgieVY-25" value="" style="fontStyle=1;align=center;verticalAlign=top;childLayout=stackLayout;horizontal=1;horizontalStack=0;resizeParent=1;resizeParentMax=0;resizeLast=0;marginBottom=0;" vertex="1" parent="1">
          <mxGeometry x="480" y="360" width="200" height="210" as="geometry" />
        </mxCell>
        <mxCell id="WsqdVvgy8sFZjgXgieVY-26" value="&lt;b&gt;Localization and Mapping&lt;/b&gt;" style="html=1;align=left;spacingLeft=4;verticalAlign=top;strokeColor=none;fillColor=none;" vertex="1" parent="WsqdVvgy8sFZjgXgieVY-25">
          <mxGeometry width="200" height="40" as="geometry" />
        </mxCell>
        <mxCell id="WsqdVvgy8sFZjgXgieVY-27" value="" style="shape=module;jettyWidth=10;jettyHeight=4;" vertex="1" parent="WsqdVvgy8sFZjgXgieVY-26">
          <mxGeometry x="1" width="16" height="20" relative="1" as="geometry">
            <mxPoint x="-25" y="9" as="offset" />
          </mxGeometry>
        </mxCell>
        <mxCell id="WsqdVvgy8sFZjgXgieVY-28" value="" style="line;strokeWidth=1;fillColor=none;align=left;verticalAlign=middle;spacingTop=-1;spacingLeft=3;spacingRight=3;rotatable=0;labelPosition=right;points=[];portConstraint=eastwest;" vertex="1" parent="WsqdVvgy8sFZjgXgieVY-25">
          <mxGeometry y="40" width="200" height="8" as="geometry" />
        </mxCell>
        <mxCell id="WsqdVvgy8sFZjgXgieVY-29" value="&lt;u&gt;provided interfaces&lt;/u&gt;" style="html=1;align=center;spacingLeft=4;verticalAlign=top;strokeColor=none;fillColor=none;" vertex="1" parent="WsqdVvgy8sFZjgXgieVY-25">
          <mxGeometry y="48" width="200" height="25" as="geometry" />
        </mxCell>
        <mxCell id="WsqdVvgy8sFZjgXgieVY-30" value="B - Vehicle Position&lt;br&gt;C - Map (cones absolute position)" style="html=1;align=left;spacingLeft=4;verticalAlign=top;strokeColor=none;fillColor=none;" vertex="1" parent="WsqdVvgy8sFZjgXgieVY-25">
          <mxGeometry y="73" width="200" height="37" as="geometry" />
        </mxCell>
        <mxCell id="WsqdVvgy8sFZjgXgieVY-31" value="" style="line;strokeWidth=1;fillColor=none;align=left;verticalAlign=middle;spacingTop=-1;spacingLeft=3;spacingRight=3;rotatable=0;labelPosition=right;points=[];portConstraint=eastwest;" vertex="1" parent="WsqdVvgy8sFZjgXgieVY-25">
          <mxGeometry y="110" width="200" height="8" as="geometry" />
        </mxCell>
        <mxCell id="WsqdVvgy8sFZjgXgieVY-32" value="&lt;u&gt;required interfaces&lt;/u&gt;" style="html=1;align=center;spacingLeft=4;verticalAlign=top;strokeColor=none;fillColor=none;" vertex="1" parent="WsqdVvgy8sFZjgXgieVY-25">
          <mxGeometry y="118" width="200" height="25" as="geometry" />
        </mxCell>
        <mxCell id="WsqdVvgy8sFZjgXgieVY-33" value="A - Cones relative position&lt;br&gt;O - Odometry from PCAN-GPS&lt;br&gt;I - IMU&lt;br&gt;S - State" style="html=1;align=left;spacingLeft=4;verticalAlign=top;strokeColor=none;fillColor=none;" vertex="1" parent="WsqdVvgy8sFZjgXgieVY-25">
          <mxGeometry y="143" width="200" height="67" as="geometry" />
        </mxCell>
        <mxCell id="WsqdVvgy8sFZjgXgieVY-34" value="" style="fontStyle=1;align=center;verticalAlign=top;childLayout=stackLayout;horizontal=1;horizontalStack=0;resizeParent=1;resizeParentMax=0;resizeLast=0;marginBottom=0;" vertex="1" parent="1">
          <mxGeometry x="170" y="600" width="200" height="210" as="geometry" />
        </mxCell>
        <mxCell id="WsqdVvgy8sFZjgXgieVY-35" value="&lt;b&gt;Control&lt;/b&gt;" style="html=1;align=left;spacingLeft=4;verticalAlign=top;strokeColor=none;fillColor=none;" vertex="1" parent="WsqdVvgy8sFZjgXgieVY-34">
          <mxGeometry width="200" height="40" as="geometry" />
        </mxCell>
        <mxCell id="WsqdVvgy8sFZjgXgieVY-36" value="" style="shape=module;jettyWidth=10;jettyHeight=4;" vertex="1" parent="WsqdVvgy8sFZjgXgieVY-35">
          <mxGeometry x="1" width="16" height="20" relative="1" as="geometry">
            <mxPoint x="-25" y="9" as="offset" />
          </mxGeometry>
        </mxCell>
        <mxCell id="WsqdVvgy8sFZjgXgieVY-37" value="" style="line;strokeWidth=1;fillColor=none;align=left;verticalAlign=middle;spacingTop=-1;spacingLeft=3;spacingRight=3;rotatable=0;labelPosition=right;points=[];portConstraint=eastwest;" vertex="1" parent="WsqdVvgy8sFZjgXgieVY-34">
          <mxGeometry y="40" width="200" height="8" as="geometry" />
        </mxCell>
        <mxCell id="WsqdVvgy8sFZjgXgieVY-38" value="&lt;u&gt;provided interfaces&lt;/u&gt;" style="html=1;align=center;spacingLeft=4;verticalAlign=top;strokeColor=none;fillColor=none;" vertex="1" parent="WsqdVvgy8sFZjgXgieVY-34">
          <mxGeometry y="48" width="200" height="25" as="geometry" />
        </mxCell>
        <mxCell id="WsqdVvgy8sFZjgXgieVY-39" value="N - Controls" style="html=1;align=left;spacingLeft=4;verticalAlign=top;strokeColor=none;fillColor=none;" vertex="1" parent="WsqdVvgy8sFZjgXgieVY-34">
          <mxGeometry y="73" width="200" height="25" as="geometry" />
        </mxCell>
        <mxCell id="WsqdVvgy8sFZjgXgieVY-40" value="" style="line;strokeWidth=1;fillColor=none;align=left;verticalAlign=middle;spacingTop=-1;spacingLeft=3;spacingRight=3;rotatable=0;labelPosition=right;points=[];portConstraint=eastwest;" vertex="1" parent="WsqdVvgy8sFZjgXgieVY-34">
          <mxGeometry y="98" width="200" height="8" as="geometry" />
        </mxCell>
        <mxCell id="WsqdVvgy8sFZjgXgieVY-41" value="&lt;u&gt;required interfaces&lt;/u&gt;" style="html=1;align=center;spacingLeft=4;verticalAlign=top;strokeColor=none;fillColor=none;" vertex="1" parent="WsqdVvgy8sFZjgXgieVY-34">
          <mxGeometry y="106" width="200" height="25" as="geometry" />
        </mxCell>
        <mxCell id="WsqdVvgy8sFZjgXgieVY-42" value="D - Path&amp;nbsp;&lt;br&gt;B - Vehicle position&lt;br&gt;S - State&lt;br&gt;O - Odometry from PCAN-GPS" style="html=1;align=left;spacingLeft=4;verticalAlign=top;strokeColor=none;fillColor=none;" vertex="1" parent="WsqdVvgy8sFZjgXgieVY-34">
          <mxGeometry y="131" width="200" height="79" as="geometry" />
        </mxCell>
        <mxCell id="WsqdVvgy8sFZjgXgieVY-43" value="" style="fontStyle=1;align=center;verticalAlign=top;childLayout=stackLayout;horizontal=1;horizontalStack=0;resizeParent=1;resizeParentMax=0;resizeLast=0;marginBottom=0;" vertex="1" parent="1">
          <mxGeometry x="480" y="660" width="200" height="210" as="geometry" />
        </mxCell>
        <mxCell id="WsqdVvgy8sFZjgXgieVY-44" value="&lt;b&gt;Path Planning&lt;/b&gt;" style="html=1;align=left;spacingLeft=4;verticalAlign=top;strokeColor=none;fillColor=none;" vertex="1" parent="WsqdVvgy8sFZjgXgieVY-43">
          <mxGeometry width="200" height="40" as="geometry" />
        </mxCell>
        <mxCell id="WsqdVvgy8sFZjgXgieVY-45" value="" style="shape=module;jettyWidth=10;jettyHeight=4;" vertex="1" parent="WsqdVvgy8sFZjgXgieVY-44">
          <mxGeometry x="1" width="16" height="20" relative="1" as="geometry">
            <mxPoint x="-25" y="9" as="offset" />
          </mxGeometry>
        </mxCell>
        <mxCell id="WsqdVvgy8sFZjgXgieVY-46" value="" style="line;strokeWidth=1;fillColor=none;align=left;verticalAlign=middle;spacingTop=-1;spacingLeft=3;spacingRight=3;rotatable=0;labelPosition=right;points=[];portConstraint=eastwest;" vertex="1" parent="WsqdVvgy8sFZjgXgieVY-43">
          <mxGeometry y="40" width="200" height="8" as="geometry" />
        </mxCell>
        <mxCell id="WsqdVvgy8sFZjgXgieVY-47" value="&lt;u&gt;provided interfaces&lt;/u&gt;" style="html=1;align=center;spacingLeft=4;verticalAlign=top;strokeColor=none;fillColor=none;" vertex="1" parent="WsqdVvgy8sFZjgXgieVY-43">
          <mxGeometry y="48" width="200" height="25" as="geometry" />
        </mxCell>
        <mxCell id="WsqdVvgy8sFZjgXgieVY-48" value="D - Path" style="html=1;align=left;spacingLeft=4;verticalAlign=top;strokeColor=none;fillColor=none;" vertex="1" parent="WsqdVvgy8sFZjgXgieVY-43">
          <mxGeometry y="73" width="200" height="25" as="geometry" />
        </mxCell>
        <mxCell id="WsqdVvgy8sFZjgXgieVY-49" value="" style="line;strokeWidth=1;fillColor=none;align=left;verticalAlign=middle;spacingTop=-1;spacingLeft=3;spacingRight=3;rotatable=0;labelPosition=right;points=[];portConstraint=eastwest;" vertex="1" parent="WsqdVvgy8sFZjgXgieVY-43">
          <mxGeometry y="98" width="200" height="8" as="geometry" />
        </mxCell>
        <mxCell id="WsqdVvgy8sFZjgXgieVY-50" value="&lt;u&gt;required interfaces&lt;/u&gt;" style="html=1;align=center;spacingLeft=4;verticalAlign=top;strokeColor=none;fillColor=none;" vertex="1" parent="WsqdVvgy8sFZjgXgieVY-43">
          <mxGeometry y="106" width="200" height="25" as="geometry" />
        </mxCell>
        <mxCell id="WsqdVvgy8sFZjgXgieVY-51" value="B - Vehicle Position&lt;br&gt;C - Map (cones absolute position)&lt;br&gt;S - State" style="html=1;align=left;spacingLeft=4;verticalAlign=top;strokeColor=none;fillColor=none;" vertex="1" parent="WsqdVvgy8sFZjgXgieVY-43">
          <mxGeometry y="131" width="200" height="79" as="geometry" />
        </mxCell>
        <mxCell id="WsqdVvgy8sFZjgXgieVY-62" value="" style="rounded=0;orthogonalLoop=1;jettySize=auto;html=1;endArrow=none;endFill=0;sketch=0;sourcePerimeterSpacing=0;targetPerimeterSpacing=0;exitX=1;exitY=0.88;exitDx=0;exitDy=0;exitPerimeter=0;" edge="1" parent="1" source="WsqdVvgy8sFZjgXgieVY-17" target="WsqdVvgy8sFZjgXgieVY-64">
          <mxGeometry relative="1" as="geometry">
            <mxPoint x="405" y="395" as="sourcePoint" />
          </mxGeometry>
        </mxCell>
        <mxCell id="WsqdVvgy8sFZjgXgieVY-65" value="A" style="edgeLabel;html=1;align=center;verticalAlign=middle;resizable=0;points=[];" connectable="0" vertex="1" parent="WsqdVvgy8sFZjgXgieVY-62">
          <mxGeometry x="0.3117" y="-2" relative="1" as="geometry">
            <mxPoint x="37" y="-17" as="offset" />
          </mxGeometry>
        </mxCell>
        <mxCell id="WsqdVvgy8sFZjgXgieVY-63" value="" style="rounded=0;orthogonalLoop=1;jettySize=auto;html=1;endArrow=halfCircle;endFill=0;entryX=0.5;entryY=0.5;endSize=6;strokeWidth=1;sketch=0;exitX=-0.002;exitY=0.87;exitDx=0;exitDy=0;exitPerimeter=0;" edge="1" parent="1" source="WsqdVvgy8sFZjgXgieVY-26" target="WsqdVvgy8sFZjgXgieVY-64">
          <mxGeometry relative="1" as="geometry">
            <mxPoint x="445" y="395" as="sourcePoint" />
          </mxGeometry>
        </mxCell>
        <mxCell id="WsqdVvgy8sFZjgXgieVY-64" value="" style="ellipse;whiteSpace=wrap;html=1;align=center;aspect=fixed;resizable=0;points=[];outlineConnect=0;sketch=0;" vertex="1" parent="1">
          <mxGeometry x="420" y="390" width="10" height="10" as="geometry" />
        </mxCell>
        <mxCell id="WsqdVvgy8sFZjgXgieVY-66" value="" style="rounded=0;orthogonalLoop=1;jettySize=auto;html=1;endArrow=none;endFill=0;sketch=0;sourcePerimeterSpacing=0;targetPerimeterSpacing=0;exitX=0.775;exitY=1.005;exitDx=0;exitDy=0;exitPerimeter=0;" edge="1" parent="1" source="WsqdVvgy8sFZjgXgieVY-33" target="WsqdVvgy8sFZjgXgieVY-68">
          <mxGeometry relative="1" as="geometry">
            <mxPoint x="615" y="560" as="sourcePoint" />
            <mxPoint x="615.2106057714602" y="570.9628702580735" as="targetPoint" />
          </mxGeometry>
        </mxCell>
        <mxCell id="WsqdVvgy8sFZjgXgieVY-80" value="C" style="edgeLabel;html=1;align=center;verticalAlign=middle;resizable=0;points=[];" connectable="0" vertex="1" parent="WsqdVvgy8sFZjgXgieVY-66">
          <mxGeometry x="-0.2456" y="-1" relative="1" as="geometry">
            <mxPoint x="6" y="21" as="offset" />
          </mxGeometry>
        </mxCell>
        <mxCell id="WsqdVvgy8sFZjgXgieVY-67" value="" style="rounded=0;orthogonalLoop=1;jettySize=auto;html=1;endArrow=halfCircle;endFill=0;entryX=0.5;entryY=0.5;endSize=6;strokeWidth=1;sketch=0;" edge="1" parent="1" target="WsqdVvgy8sFZjgXgieVY-68">
          <mxGeometry relative="1" as="geometry">
            <mxPoint x="635" y="660" as="sourcePoint" />
          </mxGeometry>
        </mxCell>
        <mxCell id="WsqdVvgy8sFZjgXgieVY-68" value="" style="ellipse;whiteSpace=wrap;html=1;align=center;aspect=fixed;resizable=0;points=[];outlineConnect=0;sketch=0;" vertex="1" parent="1">
          <mxGeometry x="630" y="620" width="10" height="10" as="geometry" />
        </mxCell>
        <mxCell id="WsqdVvgy8sFZjgXgieVY-69" value="" style="rounded=0;orthogonalLoop=1;jettySize=auto;html=1;endArrow=none;endFill=0;sketch=0;sourcePerimeterSpacing=0;targetPerimeterSpacing=0;exitX=0.5;exitY=1;exitDx=0;exitDy=0;" edge="1" parent="1" source="WsqdVvgy8sFZjgXgieVY-33" target="WsqdVvgy8sFZjgXgieVY-71">
          <mxGeometry relative="1" as="geometry">
            <mxPoint x="525" y="565" as="sourcePoint" />
          </mxGeometry>
        </mxCell>
        <mxCell id="WsqdVvgy8sFZjgXgieVY-79" value="B" style="edgeLabel;html=1;align=center;verticalAlign=middle;resizable=0;points=[];" connectable="0" vertex="1" parent="WsqdVvgy8sFZjgXgieVY-69">
          <mxGeometry x="0.4211" y="-1" relative="1" as="geometry">
            <mxPoint x="11" y="4" as="offset" />
          </mxGeometry>
        </mxCell>
        <mxCell id="WsqdVvgy8sFZjgXgieVY-70" value="" style="rounded=0;orthogonalLoop=1;jettySize=auto;html=1;endArrow=halfCircle;endFill=0;entryX=0.5;entryY=0.5;endSize=6;strokeWidth=1;sketch=0;exitX=0.5;exitY=0;exitDx=0;exitDy=0;" edge="1" parent="1" source="WsqdVvgy8sFZjgXgieVY-44" target="WsqdVvgy8sFZjgXgieVY-71">
          <mxGeometry relative="1" as="geometry">
            <mxPoint x="565" y="565" as="sourcePoint" />
          </mxGeometry>
        </mxCell>
        <mxCell id="WsqdVvgy8sFZjgXgieVY-71" value="" style="ellipse;whiteSpace=wrap;html=1;align=center;aspect=fixed;resizable=0;points=[];outlineConnect=0;sketch=0;" vertex="1" parent="1">
          <mxGeometry x="575" y="620" width="10" height="10" as="geometry" />
        </mxCell>
        <mxCell id="WsqdVvgy8sFZjgXgieVY-72" value="" style="rounded=0;orthogonalLoop=1;jettySize=auto;html=1;endArrow=none;endFill=0;sketch=0;sourcePerimeterSpacing=0;targetPerimeterSpacing=0;exitX=0.224;exitY=1.001;exitDx=0;exitDy=0;exitPerimeter=0;" edge="1" parent="1" source="WsqdVvgy8sFZjgXgieVY-33" target="WsqdVvgy8sFZjgXgieVY-74">
          <mxGeometry relative="1" as="geometry">
            <mxPoint x="405" y="565" as="sourcePoint" />
          </mxGeometry>
        </mxCell>
        <mxCell id="WsqdVvgy8sFZjgXgieVY-78" value="B" style="edgeLabel;html=1;align=center;verticalAlign=middle;resizable=0;points=[];" connectable="0" vertex="1" parent="WsqdVvgy8sFZjgXgieVY-72">
          <mxGeometry x="0.7121" relative="1" as="geometry">
            <mxPoint x="-15" y="-1" as="offset" />
          </mxGeometry>
        </mxCell>
        <mxCell id="WsqdVvgy8sFZjgXgieVY-73" value="" style="rounded=0;orthogonalLoop=1;jettySize=auto;html=1;endArrow=halfCircle;endFill=0;entryX=0.5;entryY=0.5;endSize=6;strokeWidth=1;sketch=0;" edge="1" parent="1" target="WsqdVvgy8sFZjgXgieVY-74">
          <mxGeometry relative="1" as="geometry">
            <mxPoint x="370" y="625" as="sourcePoint" />
          </mxGeometry>
        </mxCell>
        <mxCell id="WsqdVvgy8sFZjgXgieVY-74" value="" style="ellipse;whiteSpace=wrap;html=1;align=center;aspect=fixed;resizable=0;points=[];outlineConnect=0;sketch=0;" vertex="1" parent="1">
          <mxGeometry x="520" y="620" width="10" height="10" as="geometry" />
        </mxCell>
        <mxCell id="WsqdVvgy8sFZjgXgieVY-75" value="" style="rounded=0;orthogonalLoop=1;jettySize=auto;html=1;endArrow=none;endFill=0;sketch=0;sourcePerimeterSpacing=0;targetPerimeterSpacing=0;exitX=0;exitY=0.5;exitDx=0;exitDy=0;" edge="1" parent="1" source="WsqdVvgy8sFZjgXgieVY-44" target="WsqdVvgy8sFZjgXgieVY-77">
          <mxGeometry relative="1" as="geometry">
            <mxPoint x="405" y="620" as="sourcePoint" />
          </mxGeometry>
        </mxCell>
        <mxCell id="WsqdVvgy8sFZjgXgieVY-81" value="D" style="edgeLabel;html=1;align=center;verticalAlign=middle;resizable=0;points=[];" connectable="0" vertex="1" parent="WsqdVvgy8sFZjgXgieVY-75">
          <mxGeometry x="0.6267" y="-1" relative="1" as="geometry">
            <mxPoint x="-3" y="-6" as="offset" />
          </mxGeometry>
        </mxCell>
        <mxCell id="WsqdVvgy8sFZjgXgieVY-76" value="" style="rounded=0;orthogonalLoop=1;jettySize=auto;html=1;endArrow=halfCircle;endFill=0;entryX=0.5;entryY=0.5;endSize=6;strokeWidth=1;sketch=0;exitX=1;exitY=0.25;exitDx=0;exitDy=0;" edge="1" parent="1" source="WsqdVvgy8sFZjgXgieVY-39" target="WsqdVvgy8sFZjgXgieVY-77">
          <mxGeometry relative="1" as="geometry">
            <mxPoint x="445" y="620" as="sourcePoint" />
          </mxGeometry>
        </mxCell>
        <mxCell id="WsqdVvgy8sFZjgXgieVY-77" value="" style="ellipse;whiteSpace=wrap;html=1;align=center;aspect=fixed;resizable=0;points=[];outlineConnect=0;sketch=0;" vertex="1" parent="1">
          <mxGeometry x="425" y="675" width="10" height="10" as="geometry" />
        </mxCell>
        <mxCell id="XN4Io0dEb6OTo9UdpQn2-5" value="" style="rounded=0;orthogonalLoop=1;jettySize=auto;html=1;endArrow=none;endFill=0;sketch=0;sourcePerimeterSpacing=0;targetPerimeterSpacing=0;exitX=0.451;exitY=-0.011;exitDx=0;exitDy=0;exitPerimeter=0;" edge="1" parent="1" source="WsqdVvgy8sFZjgXgieVY-35" target="XN4Io0dEb6OTo9UdpQn2-7">
          <mxGeometry relative="1" as="geometry">
            <mxPoint x="370" y="545" as="sourcePoint" />
          </mxGeometry>
        </mxCell>
        <mxCell id="XN4Io0dEb6OTo9UdpQn2-6" value="" style="rounded=0;orthogonalLoop=1;jettySize=auto;html=1;endArrow=halfCircle;endFill=0;entryX=0.5;entryY=0.5;endSize=6;strokeWidth=1;sketch=0;exitX=-0.015;exitY=0.91;exitDx=0;exitDy=0;exitPerimeter=0;" edge="1" parent="1" source="WsqdVvgy8sFZjgXgieVY-33" target="XN4Io0dEb6OTo9UdpQn2-7">
          <mxGeometry relative="1" as="geometry">
            <mxPoint x="410" y="545" as="sourcePoint" />
          </mxGeometry>
        </mxCell>
        <mxCell id="XN4Io0dEb6OTo9UdpQn2-7" value="" style="ellipse;whiteSpace=wrap;html=1;align=center;aspect=fixed;resizable=0;points=[];outlineConnect=0;sketch=0;" vertex="1" parent="1">
          <mxGeometry x="255" y="560" width="10" height="10" as="geometry" />
        </mxCell>
        <mxCell id="XN4Io0dEb6OTo9UdpQn2-8" value="N" style="text;html=1;align=center;verticalAlign=middle;resizable=0;points=[];autosize=1;strokeColor=none;fillColor=none;" vertex="1" parent="1">
          <mxGeometry x="235" y="560" width="30" height="30" as="geometry" />
        </mxCell>
        <mxCell id="pl2j_WaxAPi0Sbaa-Yik-1" value="&lt;div style=&quot;text-align: center;&quot;&gt;&lt;b style=&quot;background-color: initial;&quot;&gt;&lt;font style=&quot;font-size: 14px;&quot;&gt;TOPICS:&lt;/font&gt;&lt;/b&gt;&lt;/div&gt;&lt;font size=&quot;3&quot;&gt;A - Cones From Perception - &quot;perception/cone_coordinates&lt;span style=&quot;background-color: initial;&quot;&gt;&quot;&lt;/span&gt;&lt;br&gt;B - Localization - &quot;vehicle_localization&quot;&lt;br&gt;C - Map - &quot;track_map&quot;&lt;br&gt;D - Path - &quot;planning_local&quot;&lt;br&gt;&lt;br&gt;Z - EUFS_Z / FS_Z / ADS-DV_Z&lt;br&gt;S - State - FS_M / EUFS_M / ADS-DV_M&lt;br&gt;N - Controls - EUFS_M / FS_M / ADS-DV_O&lt;br&gt;E - Emergency Break - &quot;ebs&quot;&lt;br&gt;O - Odometry - EUFS_O / FS_O / ADS-DV_O&lt;br&gt;I - IMU - FS_I / EUFS_I / ADS-DV_I&lt;br&gt;&lt;br&gt;EUFS_M - &quot;/ros_can/state&quot;&lt;br style=&quot;&quot;&gt;&lt;span style=&quot;&quot;&gt;EUFS_O - &quot;/ros_can/wheel_speeds&quot;&lt;/span&gt;&lt;br style=&quot;&quot;&gt;&lt;span style=&quot;&quot;&gt;EUFS_I - &quot;/imu/data&quot;&lt;/span&gt;&lt;br style=&quot;&quot;&gt;&lt;span style=&quot;&quot;&gt;EUFS_Z - &quot;/zed/image_raw&quot;&lt;br&gt;EUFS_N - &quot;/cmd&quot;&lt;br&gt;&lt;/span&gt;&lt;br&gt;FS_M - &quot;/fsds/state&quot;&lt;br&gt;FS_O - &quot;/fsds/gps&quot;&lt;br&gt;FS_I - &quot;/fsds/imu&quot;&lt;br&gt;FS_Z - &quot;/fsds/camera/CAMERA_NAME /fsds/camera/CAMERA_NAME/camera_info&quot;&lt;br&gt;FS_N - &quot;/fsds/control_command&quot;&lt;br&gt;&lt;br&gt;&lt;/font&gt;&lt;div style=&quot;text-align: center;&quot;&gt;&lt;font size=&quot;3&quot;&gt;&lt;b style=&quot;border-color: var(--border-color); background-color: initial;&quot;&gt;SERVICES:&lt;/b&gt;&lt;br&gt;&lt;/font&gt;&lt;/div&gt;&lt;font size=&quot;3&quot;&gt;EUFS_E - &quot;/ros_can/ebs&quot;&lt;br&gt;ADS-DV_E - &quot;/ebs&quot;&lt;br&gt;FS_E - &quot;/fsds/ebs&quot;&lt;/font&gt;" style="shape=note;whiteSpace=wrap;html=1;backgroundOutline=1;darkOpacity=0.05;align=left;" vertex="1" parent="1">
          <mxGeometry x="-240" y="380" width="320" height="690" as="geometry" />
        </mxCell>
        <mxCell id="aBVJbUwKVC0tIhomXJWl-11" value="" style="fontStyle=1;align=center;verticalAlign=top;childLayout=stackLayout;horizontal=1;horizontalStack=0;resizeParent=1;resizeParentMax=0;resizeLast=0;marginBottom=0;" vertex="1" parent="1">
          <mxGeometry x="960" y="810" width="220" height="220" as="geometry" />
        </mxCell>
        <mxCell id="aBVJbUwKVC0tIhomXJWl-12" value="&lt;b&gt;EUFS sim/Ros can&lt;br&gt;&lt;/b&gt;" style="html=1;align=left;spacingLeft=4;verticalAlign=top;strokeColor=none;fillColor=none;" vertex="1" parent="aBVJbUwKVC0tIhomXJWl-11">
          <mxGeometry width="220" height="40" as="geometry" />
        </mxCell>
        <mxCell id="aBVJbUwKVC0tIhomXJWl-13" value="" style="shape=module;jettyWidth=10;jettyHeight=4;" vertex="1" parent="aBVJbUwKVC0tIhomXJWl-12">
          <mxGeometry x="1" width="16" height="20" relative="1" as="geometry">
            <mxPoint x="-25" y="9" as="offset" />
          </mxGeometry>
        </mxCell>
        <mxCell id="aBVJbUwKVC0tIhomXJWl-14" value="" style="line;strokeWidth=1;fillColor=none;align=left;verticalAlign=middle;spacingTop=-1;spacingLeft=3;spacingRight=3;rotatable=0;labelPosition=right;points=[];portConstraint=eastwest;" vertex="1" parent="aBVJbUwKVC0tIhomXJWl-11">
          <mxGeometry y="40" width="220" height="8" as="geometry" />
        </mxCell>
        <mxCell id="aBVJbUwKVC0tIhomXJWl-15" value="&lt;u&gt;provided interfaces&lt;/u&gt;" style="html=1;align=center;spacingLeft=4;verticalAlign=top;strokeColor=none;fillColor=none;" vertex="1" parent="aBVJbUwKVC0tIhomXJWl-11">
          <mxGeometry y="48" width="220" height="25" as="geometry" />
        </mxCell>
        <mxCell id="aBVJbUwKVC0tIhomXJWl-16" value="EUFS_S - State&lt;br&gt;EUFS_O - Odometry from PCAN-GPS&lt;br&gt;EUFS_I - IMU&lt;br&gt;EUFS_Z - Camera images&lt;br&gt;EUFS_E - EBS" style="html=1;align=left;spacingLeft=4;verticalAlign=top;strokeColor=none;fillColor=none;" vertex="1" parent="aBVJbUwKVC0tIhomXJWl-11">
          <mxGeometry y="73" width="220" height="87" as="geometry" />
        </mxCell>
        <mxCell id="aBVJbUwKVC0tIhomXJWl-17" value="" style="line;strokeWidth=1;fillColor=none;align=left;verticalAlign=middle;spacingTop=-1;spacingLeft=3;spacingRight=3;rotatable=0;labelPosition=right;points=[];portConstraint=eastwest;" vertex="1" parent="aBVJbUwKVC0tIhomXJWl-11">
          <mxGeometry y="160" width="220" height="8" as="geometry" />
        </mxCell>
        <mxCell id="aBVJbUwKVC0tIhomXJWl-18" value="&lt;u&gt;required interfaces&lt;/u&gt;" style="html=1;align=center;spacingLeft=4;verticalAlign=top;strokeColor=none;fillColor=none;" vertex="1" parent="aBVJbUwKVC0tIhomXJWl-11">
          <mxGeometry y="168" width="220" height="25" as="geometry" />
        </mxCell>
        <mxCell id="aBVJbUwKVC0tIhomXJWl-19" value="EUFS_N - Controls" style="html=1;align=left;spacingLeft=4;verticalAlign=top;strokeColor=none;fillColor=none;" vertex="1" parent="aBVJbUwKVC0tIhomXJWl-11">
          <mxGeometry y="193" width="220" height="27" as="geometry" />
        </mxCell>
        <mxCell id="aBVJbUwKVC0tIhomXJWl-20" value="" style="fontStyle=1;align=center;verticalAlign=top;childLayout=stackLayout;horizontal=1;horizontalStack=0;resizeParent=1;resizeParentMax=0;resizeLast=0;marginBottom=0;" vertex="1" parent="1">
          <mxGeometry x="960" y="570" width="220" height="220" as="geometry" />
        </mxCell>
        <mxCell id="aBVJbUwKVC0tIhomXJWl-21" value="&lt;b&gt;FS sim&lt;br&gt;&lt;/b&gt;" style="html=1;align=left;spacingLeft=4;verticalAlign=top;strokeColor=none;fillColor=none;" vertex="1" parent="aBVJbUwKVC0tIhomXJWl-20">
          <mxGeometry width="220" height="40" as="geometry" />
        </mxCell>
        <mxCell id="aBVJbUwKVC0tIhomXJWl-22" value="" style="shape=module;jettyWidth=10;jettyHeight=4;" vertex="1" parent="aBVJbUwKVC0tIhomXJWl-21">
          <mxGeometry x="1" width="16" height="20" relative="1" as="geometry">
            <mxPoint x="-25" y="9" as="offset" />
          </mxGeometry>
        </mxCell>
        <mxCell id="aBVJbUwKVC0tIhomXJWl-23" value="" style="line;strokeWidth=1;fillColor=none;align=left;verticalAlign=middle;spacingTop=-1;spacingLeft=3;spacingRight=3;rotatable=0;labelPosition=right;points=[];portConstraint=eastwest;" vertex="1" parent="aBVJbUwKVC0tIhomXJWl-20">
          <mxGeometry y="40" width="220" height="8" as="geometry" />
        </mxCell>
        <mxCell id="aBVJbUwKVC0tIhomXJWl-24" value="&lt;u&gt;provided interfaces&lt;/u&gt;" style="html=1;align=center;spacingLeft=4;verticalAlign=top;strokeColor=none;fillColor=none;" vertex="1" parent="aBVJbUwKVC0tIhomXJWl-20">
          <mxGeometry y="48" width="220" height="25" as="geometry" />
        </mxCell>
        <mxCell id="aBVJbUwKVC0tIhomXJWl-25" value="FS_S - State&lt;br&gt;FS_O - Odometry from PCAN-GPS&lt;br&gt;FS_I - IMU&lt;br&gt;FS_Z - Camera images&lt;br&gt;FS_E - EBS" style="html=1;align=left;spacingLeft=4;verticalAlign=top;strokeColor=none;fillColor=none;" vertex="1" parent="aBVJbUwKVC0tIhomXJWl-20">
          <mxGeometry y="73" width="220" height="87" as="geometry" />
        </mxCell>
        <mxCell id="aBVJbUwKVC0tIhomXJWl-26" value="" style="line;strokeWidth=1;fillColor=none;align=left;verticalAlign=middle;spacingTop=-1;spacingLeft=3;spacingRight=3;rotatable=0;labelPosition=right;points=[];portConstraint=eastwest;" vertex="1" parent="aBVJbUwKVC0tIhomXJWl-20">
          <mxGeometry y="160" width="220" height="8" as="geometry" />
        </mxCell>
        <mxCell id="aBVJbUwKVC0tIhomXJWl-27" value="&lt;u&gt;required interfaces&lt;/u&gt;" style="html=1;align=center;spacingLeft=4;verticalAlign=top;strokeColor=none;fillColor=none;" vertex="1" parent="aBVJbUwKVC0tIhomXJWl-20">
          <mxGeometry y="168" width="220" height="25" as="geometry" />
        </mxCell>
        <mxCell id="aBVJbUwKVC0tIhomXJWl-28" value="FS_N - Controls" style="html=1;align=left;spacingLeft=4;verticalAlign=top;strokeColor=none;fillColor=none;" vertex="1" parent="aBVJbUwKVC0tIhomXJWl-20">
          <mxGeometry y="193" width="220" height="27" as="geometry" />
        </mxCell>
        <mxCell id="aBVJbUwKVC0tIhomXJWl-39" value="" style="fontStyle=1;align=center;verticalAlign=top;childLayout=stackLayout;horizontal=1;horizontalStack=0;resizeParent=1;resizeParentMax=0;resizeLast=0;marginBottom=0;" vertex="1" parent="1">
          <mxGeometry x="960" y="330" width="220" height="220" as="geometry" />
        </mxCell>
        <mxCell id="aBVJbUwKVC0tIhomXJWl-40" value="&lt;b&gt;Can&lt;br&gt;&lt;/b&gt;" style="html=1;align=left;spacingLeft=4;verticalAlign=top;strokeColor=none;fillColor=none;" vertex="1" parent="aBVJbUwKVC0tIhomXJWl-39">
          <mxGeometry width="220" height="40" as="geometry" />
        </mxCell>
        <mxCell id="aBVJbUwKVC0tIhomXJWl-41" value="" style="shape=module;jettyWidth=10;jettyHeight=4;" vertex="1" parent="aBVJbUwKVC0tIhomXJWl-40">
          <mxGeometry x="1" width="16" height="20" relative="1" as="geometry">
            <mxPoint x="-25" y="9" as="offset" />
          </mxGeometry>
        </mxCell>
        <mxCell id="aBVJbUwKVC0tIhomXJWl-42" value="" style="line;strokeWidth=1;fillColor=none;align=left;verticalAlign=middle;spacingTop=-1;spacingLeft=3;spacingRight=3;rotatable=0;labelPosition=right;points=[];portConstraint=eastwest;" vertex="1" parent="aBVJbUwKVC0tIhomXJWl-39">
          <mxGeometry y="40" width="220" height="8" as="geometry" />
        </mxCell>
        <mxCell id="aBVJbUwKVC0tIhomXJWl-43" value="&lt;u&gt;provided interfaces&lt;/u&gt;" style="html=1;align=center;spacingLeft=4;verticalAlign=top;strokeColor=none;fillColor=none;" vertex="1" parent="aBVJbUwKVC0tIhomXJWl-39">
          <mxGeometry y="48" width="220" height="25" as="geometry" />
        </mxCell>
        <mxCell id="aBVJbUwKVC0tIhomXJWl-44" value="ADS-DV_S - State&lt;br&gt;ADS-DV_O - Odometry from PCAN-GPS&lt;br&gt;ADS-DV_I - IMU&lt;br&gt;ADS-DV_Z - Camera images&lt;br&gt;ADS-DV_E - EBS" style="html=1;align=left;spacingLeft=4;verticalAlign=top;strokeColor=none;fillColor=none;" vertex="1" parent="aBVJbUwKVC0tIhomXJWl-39">
          <mxGeometry y="73" width="220" height="87" as="geometry" />
        </mxCell>
        <mxCell id="aBVJbUwKVC0tIhomXJWl-45" value="" style="line;strokeWidth=1;fillColor=none;align=left;verticalAlign=middle;spacingTop=-1;spacingLeft=3;spacingRight=3;rotatable=0;labelPosition=right;points=[];portConstraint=eastwest;" vertex="1" parent="aBVJbUwKVC0tIhomXJWl-39">
          <mxGeometry y="160" width="220" height="8" as="geometry" />
        </mxCell>
        <mxCell id="aBVJbUwKVC0tIhomXJWl-46" value="&lt;u&gt;required interfaces&lt;/u&gt;" style="html=1;align=center;spacingLeft=4;verticalAlign=top;strokeColor=none;fillColor=none;" vertex="1" parent="aBVJbUwKVC0tIhomXJWl-39">
          <mxGeometry y="168" width="220" height="25" as="geometry" />
        </mxCell>
        <mxCell id="aBVJbUwKVC0tIhomXJWl-47" value="ADS-DV_N - Controls" style="html=1;align=left;spacingLeft=4;verticalAlign=top;strokeColor=none;fillColor=none;" vertex="1" parent="aBVJbUwKVC0tIhomXJWl-39">
          <mxGeometry y="193" width="220" height="27" as="geometry" />
        </mxCell>
        <mxCell id="aBVJbUwKVC0tIhomXJWl-48" value="" style="rounded=0;orthogonalLoop=1;jettySize=auto;html=1;endArrow=none;endFill=0;sketch=0;sourcePerimeterSpacing=0;targetPerimeterSpacing=0;exitX=0.775;exitY=1.001;exitDx=0;exitDy=0;exitPerimeter=0;" edge="1" parent="1" source="WsqdVvgy8sFZjgXgieVY-42" target="aBVJbUwKVC0tIhomXJWl-50">
          <mxGeometry relative="1" as="geometry">
            <mxPoint x="230" y="865" as="sourcePoint" />
          </mxGeometry>
        </mxCell>
        <mxCell id="aBVJbUwKVC0tIhomXJWl-49" value="" style="rounded=0;orthogonalLoop=1;jettySize=auto;html=1;endArrow=halfCircle;endFill=0;entryX=0.5;entryY=0.5;endSize=6;strokeWidth=1;sketch=0;" edge="1" parent="1" target="aBVJbUwKVC0tIhomXJWl-50">
          <mxGeometry relative="1" as="geometry">
            <mxPoint x="270" y="980" as="sourcePoint" />
            <Array as="points">
              <mxPoint x="325" y="980" />
            </Array>
          </mxGeometry>
        </mxCell>
        <mxCell id="aBVJbUwKVC0tIhomXJWl-50" value="" style="ellipse;whiteSpace=wrap;html=1;align=center;aspect=fixed;resizable=0;points=[];outlineConnect=0;sketch=0;" vertex="1" parent="1">
          <mxGeometry x="320" y="890" width="10" height="10" as="geometry" />
        </mxCell>
        <mxCell id="aBVJbUwKVC0tIhomXJWl-51" value="N" style="edgeLabel;html=1;align=center;verticalAlign=middle;resizable=0;points=[];" connectable="0" vertex="1" parent="1">
          <mxGeometry x="359.9966666666667" y="840" as="geometry">
            <mxPoint x="-22" y="48" as="offset" />
          </mxGeometry>
        </mxCell>
        <mxCell id="aBVJbUwKVC0tIhomXJWl-52" value="" style="rounded=0;orthogonalLoop=1;jettySize=auto;html=1;endArrow=none;endFill=0;sketch=0;sourcePerimeterSpacing=0;targetPerimeterSpacing=0;" edge="1" parent="1" target="aBVJbUwKVC0tIhomXJWl-54">
          <mxGeometry relative="1" as="geometry">
            <mxPoint x="120" y="1050" as="sourcePoint" />
            <Array as="points">
              <mxPoint x="110" y="1050" />
            </Array>
          </mxGeometry>
        </mxCell>
        <mxCell id="aBVJbUwKVC0tIhomXJWl-56" value="" style="rounded=0;orthogonalLoop=1;jettySize=auto;html=1;endArrow=none;endFill=0;sketch=0;sourcePerimeterSpacing=0;targetPerimeterSpacing=0;" edge="1" parent="1" target="aBVJbUwKVC0tIhomXJWl-58">
          <mxGeometry relative="1" as="geometry">
            <mxPoint x="270" y="980" as="sourcePoint" />
            <Array as="points">
              <mxPoint x="215" y="980" />
            </Array>
          </mxGeometry>
        </mxCell>
        <mxCell id="aBVJbUwKVC0tIhomXJWl-57" value="" style="rounded=0;orthogonalLoop=1;jettySize=auto;html=1;endArrow=halfCircle;endFill=0;entryX=0.5;entryY=0.5;endSize=6;strokeWidth=1;sketch=0;exitX=0.224;exitY=1.003;exitDx=0;exitDy=0;exitPerimeter=0;" edge="1" parent="1" source="WsqdVvgy8sFZjgXgieVY-42" target="aBVJbUwKVC0tIhomXJWl-58">
          <mxGeometry relative="1" as="geometry">
            <mxPoint x="270" y="830" as="sourcePoint" />
          </mxGeometry>
        </mxCell>
        <mxCell id="aBVJbUwKVC0tIhomXJWl-58" value="" style="ellipse;whiteSpace=wrap;html=1;align=center;aspect=fixed;resizable=0;points=[];outlineConnect=0;sketch=0;" vertex="1" parent="1">
          <mxGeometry x="210" y="890" width="10" height="10" as="geometry" />
        </mxCell>
        <mxCell id="aBVJbUwKVC0tIhomXJWl-59" value="S, O, E" style="text;html=1;align=center;verticalAlign=middle;resizable=0;points=[];autosize=1;strokeColor=none;fillColor=none;" vertex="1" parent="1">
          <mxGeometry x="210" y="870" width="60" height="30" as="geometry" />
        </mxCell>
        <mxCell id="aBVJbUwKVC0tIhomXJWl-66" value="Z" style="text;html=1;align=center;verticalAlign=middle;resizable=0;points=[];autosize=1;strokeColor=none;fillColor=none;" vertex="1" parent="1">
          <mxGeometry x="90" y="530" width="30" height="30" as="geometry" />
        </mxCell>
        <mxCell id="aBVJbUwKVC0tIhomXJWl-70" value="" style="rounded=0;orthogonalLoop=1;jettySize=auto;html=1;endArrow=none;endFill=0;sketch=0;sourcePerimeterSpacing=0;targetPerimeterSpacing=0;" edge="1" parent="1" target="aBVJbUwKVC0tIhomXJWl-72">
          <mxGeometry relative="1" as="geometry">
            <mxPoint x="280" y="980" as="sourcePoint" />
            <Array as="points">
              <mxPoint x="760" y="980" />
            </Array>
          </mxGeometry>
        </mxCell>
        <mxCell id="aBVJbUwKVC0tIhomXJWl-71" value="" style="rounded=0;orthogonalLoop=1;jettySize=auto;html=1;endArrow=halfCircle;endFill=0;entryX=0.5;entryY=0.5;endSize=6;strokeWidth=1;sketch=0;" edge="1" parent="1" target="aBVJbUwKVC0tIhomXJWl-72">
          <mxGeometry relative="1" as="geometry">
            <mxPoint x="680" y="520" as="sourcePoint" />
            <Array as="points">
              <mxPoint x="760" y="520" />
            </Array>
          </mxGeometry>
        </mxCell>
        <mxCell id="aBVJbUwKVC0tIhomXJWl-72" value="" style="ellipse;whiteSpace=wrap;html=1;align=center;aspect=fixed;resizable=0;points=[];outlineConnect=0;sketch=0;" vertex="1" parent="1">
          <mxGeometry x="755" y="715" width="10" height="10" as="geometry" />
        </mxCell>
        <mxCell id="aBVJbUwKVC0tIhomXJWl-73" value="S, I, O, E" style="text;html=1;align=center;verticalAlign=middle;resizable=0;points=[];autosize=1;strokeColor=none;fillColor=none;" vertex="1" parent="1">
          <mxGeometry x="755" y="715" width="70" height="30" as="geometry" />
        </mxCell>
        <mxCell id="aBVJbUwKVC0tIhomXJWl-74" value="" style="rounded=0;orthogonalLoop=1;jettySize=auto;html=1;endArrow=none;endFill=0;sketch=0;sourcePerimeterSpacing=0;targetPerimeterSpacing=0;" edge="1" parent="1" target="aBVJbUwKVC0tIhomXJWl-76">
          <mxGeometry relative="1" as="geometry">
            <mxPoint x="850" y="980" as="sourcePoint" />
            <Array as="points">
              <mxPoint x="270" y="980" />
              <mxPoint x="420" y="980" />
              <mxPoint x="580" y="980" />
            </Array>
          </mxGeometry>
        </mxCell>
        <mxCell id="aBVJbUwKVC0tIhomXJWl-75" value="" style="rounded=0;orthogonalLoop=1;jettySize=auto;html=1;endArrow=halfCircle;endFill=0;entryX=0.5;entryY=0.5;endSize=6;strokeWidth=1;sketch=0;" edge="1" parent="1" source="WsqdVvgy8sFZjgXgieVY-51" target="aBVJbUwKVC0tIhomXJWl-76">
          <mxGeometry relative="1" as="geometry">
            <mxPoint x="500" y="1045" as="sourcePoint" />
          </mxGeometry>
        </mxCell>
        <mxCell id="aBVJbUwKVC0tIhomXJWl-76" value="" style="ellipse;whiteSpace=wrap;html=1;align=center;aspect=fixed;resizable=0;points=[];outlineConnect=0;sketch=0;" vertex="1" parent="1">
          <mxGeometry x="575" y="950" width="10" height="10" as="geometry" />
        </mxCell>
        <mxCell id="aBVJbUwKVC0tIhomXJWl-77" value="S, E" style="text;html=1;align=center;verticalAlign=middle;resizable=0;points=[];autosize=1;strokeColor=none;fillColor=none;" vertex="1" parent="1">
          <mxGeometry x="575" y="950" width="50" height="30" as="geometry" />
        </mxCell>
        <mxCell id="aBVJbUwKVC0tIhomXJWl-83" value="" style="endArrow=none;dashed=1;html=1;dashPattern=1 3;strokeWidth=2;rounded=0;entryX=0;entryY=0.5;entryDx=0;entryDy=0;" edge="1" parent="1" target="aBVJbUwKVC0tIhomXJWl-21">
          <mxGeometry width="50" height="50" relative="1" as="geometry">
            <mxPoint x="920" y="690" as="sourcePoint" />
            <mxPoint x="920" y="590" as="targetPoint" />
            <Array as="points">
              <mxPoint x="920" y="590" />
            </Array>
          </mxGeometry>
        </mxCell>
        <mxCell id="aBVJbUwKVC0tIhomXJWl-84" value="" style="endArrow=none;dashed=1;html=1;dashPattern=1 3;strokeWidth=2;rounded=0;exitX=0;exitY=0.75;exitDx=0;exitDy=0;" edge="1" parent="1" source="aBVJbUwKVC0tIhomXJWl-12">
          <mxGeometry width="50" height="50" relative="1" as="geometry">
            <mxPoint x="1040" y="700" as="sourcePoint" />
            <mxPoint x="920" y="680" as="targetPoint" />
            <Array as="points">
              <mxPoint x="920" y="840" />
            </Array>
          </mxGeometry>
        </mxCell>
        <mxCell id="aBVJbUwKVC0tIhomXJWl-85" value="" style="endArrow=none;dashed=1;html=1;dashPattern=1 3;strokeWidth=2;rounded=0;entryX=0;entryY=0.75;entryDx=0;entryDy=0;" edge="1" parent="1" target="aBVJbUwKVC0tIhomXJWl-40">
          <mxGeometry width="50" height="50" relative="1" as="geometry">
            <mxPoint x="920" y="600" as="sourcePoint" />
            <mxPoint x="680" y="420" as="targetPoint" />
            <Array as="points">
              <mxPoint x="920" y="360" />
            </Array>
          </mxGeometry>
        </mxCell>
        <mxCell id="rZhn-wVN_V8DheyP8FBC-1" value="Zed Camera" style="html=1;" vertex="1" parent="1">
          <mxGeometry x="980" y="1050" width="110" height="50" as="geometry" />
        </mxCell>
        <mxCell id="rZhn-wVN_V8DheyP8FBC-2" value="" style="rounded=0;orthogonalLoop=1;jettySize=auto;html=1;endArrow=halfCircle;endFill=0;entryX=0.5;entryY=0.5;endSize=6;strokeWidth=1;sketch=0;exitX=0;exitY=0.5;exitDx=0;exitDy=0;" edge="1" parent="1" source="RBw5RJraQLQt1fo9KfAq-11" target="aBVJbUwKVC0tIhomXJWl-54">
          <mxGeometry relative="1" as="geometry">
            <mxPoint x="170" y="390" as="sourcePoint" />
            <Array as="points" />
            <mxPoint x="130" y="390" as="targetPoint" />
          </mxGeometry>
        </mxCell>
        <mxCell id="aBVJbUwKVC0tIhomXJWl-54" value="" style="ellipse;whiteSpace=wrap;html=1;align=center;aspect=fixed;resizable=0;points=[];outlineConnect=0;sketch=0;" vertex="1" parent="1">
          <mxGeometry x="110" y="530" width="10" height="10" as="geometry" />
        </mxCell>
        <mxCell id="RBw5RJraQLQt1fo9KfAq-10" value="Adapter" style="html=1;" vertex="1" parent="1">
          <mxGeometry x="480" y="870" width="200" height="30" as="geometry" />
        </mxCell>
        <mxCell id="RBw5RJraQLQt1fo9KfAq-11" value="Adapter" style="html=1;" vertex="1" parent="1">
          <mxGeometry x="170" y="520" width="200" height="30" as="geometry" />
        </mxCell>
        <mxCell id="RBw5RJraQLQt1fo9KfAq-12" value="Adapter" style="html=1;" vertex="1" parent="1">
          <mxGeometry x="680" y="480" width="50" height="80" as="geometry" />
        </mxCell>
        <mxCell id="RBw5RJraQLQt1fo9KfAq-13" value="Adapter" style="html=1;" vertex="1" parent="1">
          <mxGeometry x="170" y="810" width="200" height="30" as="geometry" />
        </mxCell>
        <mxCell id="RBw5RJraQLQt1fo9KfAq-16" value="" style="endArrow=none;dashed=1;html=1;dashPattern=1 3;strokeWidth=2;rounded=0;exitX=0;exitY=0.5;exitDx=0;exitDy=0;" edge="1" parent="1" source="rZhn-wVN_V8DheyP8FBC-1">
          <mxGeometry width="50" height="50" relative="1" as="geometry">
            <mxPoint x="-130" y="1100" as="sourcePoint" />
            <mxPoint x="120" y="1050" as="targetPoint" />
            <Array as="points">
              <mxPoint x="120" y="1080" />
            </Array>
          </mxGeometry>
        </mxCell>
        <mxCell id="RBw5RJraQLQt1fo9KfAq-17" value="" style="endArrow=none;dashed=1;html=1;dashPattern=1 3;strokeWidth=2;rounded=0;" edge="1" parent="1">
          <mxGeometry width="50" height="50" relative="1" as="geometry">
            <mxPoint x="930" y="590" as="sourcePoint" />
            <mxPoint x="850" y="980" as="targetPoint" />
            <Array as="points">
              <mxPoint x="850" y="590" />
            </Array>
          </mxGeometry>
        </mxCell>
        <mxCell id="RBw5RJraQLQt1fo9KfAq-22" value="" style="rounded=0;orthogonalLoop=1;jettySize=auto;html=1;endArrow=none;endFill=0;sketch=0;sourcePerimeterSpacing=0;targetPerimeterSpacing=0;" edge="1" parent="1" target="RBw5RJraQLQt1fo9KfAq-20">
          <mxGeometry relative="1" as="geometry">
            <mxPoint x="270" y="980" as="sourcePoint" />
            <Array as="points">
              <mxPoint x="140" y="980" />
              <mxPoint x="140" y="575" />
            </Array>
            <mxPoint x="170" y="570" as="targetPoint" />
          </mxGeometry>
        </mxCell>
        <mxCell id="RBw5RJraQLQt1fo9KfAq-20" value="" style="ellipse;whiteSpace=wrap;html=1;align=center;aspect=fixed;resizable=0;points=[];outlineConnect=0;sketch=0;" vertex="1" parent="1">
          <mxGeometry x="160" y="570" width="10" height="10" as="geometry" />
        </mxCell>
        <mxCell id="RBw5RJraQLQt1fo9KfAq-23" value="" style="rounded=0;orthogonalLoop=1;jettySize=auto;html=1;endArrow=halfCircle;endFill=0;entryX=0.5;entryY=0.5;endSize=6;strokeWidth=1;sketch=0;exitX=0.15;exitY=1.027;exitDx=0;exitDy=0;exitPerimeter=0;" edge="1" parent="1" source="RBw5RJraQLQt1fo9KfAq-11">
          <mxGeometry relative="1" as="geometry">
            <mxPoint x="220" y="574.86" as="sourcePoint" />
            <Array as="points">
              <mxPoint x="200" y="575" />
            </Array>
            <mxPoint x="165" y="574.86" as="targetPoint" />
          </mxGeometry>
        </mxCell>
        <mxCell id="RBw5RJraQLQt1fo9KfAq-24" value="E" style="text;html=1;align=center;verticalAlign=middle;resizable=0;points=[];autosize=1;strokeColor=none;fillColor=none;" vertex="1" parent="1">
          <mxGeometry x="140" y="550" width="30" height="30" as="geometry" />
        </mxCell>
        <mxCell id="RBw5RJraQLQt1fo9KfAq-25" value="" style="endArrow=none;dashed=1;html=1;dashPattern=1 3;strokeWidth=2;rounded=0;" edge="1" parent="1">
          <mxGeometry width="50" height="50" relative="1" as="geometry">
            <mxPoint x="920" y="840" as="sourcePoint" />
            <mxPoint x="920" y="1070" as="targetPoint" />
            <Array as="points" />
          </mxGeometry>
        </mxCell>
      </root>
    </mxGraphModel>
  </diagram>
</mxfile>
